<?xml version="1.0" encoding="UTF-8" standalone="no" ?>
<!DOCTYPE svg PUBLIC "-//W3C//DTD SVG 1.1//EN" "http://www.w3.org/Graphics/SVG/1.1/DTD/svg11.dtd">
<svg xmlns="http://www.w3.org/2000/svg" xmlns:xlink="http://www.w3.org/1999/xlink" version="1.1" width="512" height="512" viewBox="0 0 512 512" xml:space="preserve">
<desc>Created with Fabric.js 5.3.0</desc>
<defs>
</defs>
<g transform="matrix(3.9695652713 0 0 3.9695652713 256 256)" id="ZJ1RV6mX2du8xSt5cHn4K"  >
<path style="stroke: rgb(187,134,62); stroke-width: 0; stroke-dasharray: none; stroke-linecap: butt; stroke-dashoffset: 0; stroke-linejoin: miter; stroke-miterlimit: 4; fill: rgb(255,255,255); fill-rule: nonzero; opacity: 1;"  transform=" translate(0, 0)" d="M -64.49069 -37.12961 C -64.49069 -52.240719999999996 -52.24072 -64.49069 -37.12961 -64.49069 L 37.129599999999996 -64.49069 L 37.129599999999996 -64.49069 C 52.24070999999999 -64.49069 64.49068 -52.24072 64.49068 -37.12961 L 64.49068 37.129599999999996 L 64.49068 37.129599999999996 C 64.49068 52.24070999999999 52.24071 64.49068 37.129599999999996 64.49068 L -37.12961 64.49068 L -37.12961 64.49068 C -52.240719999999996 64.49068 -64.49069 52.24071 -64.49069 37.129599999999996 z" stroke-linecap="round" />
</g>
<g transform="matrix(0.9377183253 0 0 0.937718266 256 256)" id="Q9G6OH7AuVnv3sCjjjuHq"  >
<g style=""   >
		<g transform="matrix(1 0 0 1 0.0291811494 -74.2021663364)" id="cbm5ZAaIvtCuELgYVv4y8"  >
<path style="stroke: none; stroke-width: 1; stroke-dasharray: none; stroke-linecap: butt; stroke-dashoffset: 0; stroke-linejoin: miter; stroke-miterlimit: 4; fill: rgb(0,0,0); fill-rule: nonzero; opacity: 1;"  transform=" translate(-180.0291811494, -180.2978336636)" d="M 315.889 298.952 L 294.066 238.241 C 292.813 234.775 290.191 231.978 286.782 230.55 L 233.377 207.915 C 235.503 203.778 237.135 199.408 238.242 194.864 L 290.278 215.11 C 295.319 217.062 300.826 215.722 304.438 212.139 C 305.691 210.886 306.711 209.342 307.41 207.594 C 310.062 200.807 306.682 193.145 299.893 190.494 L 273.671 180.298 L 299.893 170.102 C 306.711 167.451 310.062 159.789 307.41 153.001 C 304.759 146.213 297.096 142.834 290.308 145.485 L 238.271 165.732 C 237.164 161.187 235.533 156.817 233.406 152.681 L 286.811 130.045 C 288.385 129.375 289.812 128.414 291.007 127.219 C 292.376 125.85 293.425 124.19 294.095 122.354 L 315.918 61.6433 C 317.637 56.8365 316.442 51.4471 312.829 47.8347 C 309.217 44.2223 303.827 42.9988 299.019 44.7467 L 238.3 66.5666 C 234.833 67.8192 232.036 70.4411 230.609 73.8496 L 208.029 127.132 C 203.833 124.947 199.434 123.257 194.83 122.121 L 214.293 70.3537 C 216.857 63.5368 213.419 55.9043 206.572 53.3406 C 199.754 50.777 192.12 54.2146 189.557 61.0606 L 180.029 86.3763 L 170.502 61.0606 C 167.938 54.2146 160.304 50.777 153.487 53.3406 C 146.64 55.9043 143.202 63.5368 145.766 70.3537 L 165.228 122.121 C 160.625 123.257 156.196 124.918 152.03 127.132 L 129.45 73.8496 C 128.022 70.4411 125.225 67.8192 121.758 66.5666 L 61.0392 44.7467 C 56.2318 43.0279 50.8417 44.2223 47.2289 47.8347 C 43.6161 51.4471 42.3924 56.8365 44.1405 61.6433 L 65.9631 122.354 C 67.2159 125.821 69.8381 128.618 73.247 130.045 L 126.653 152.681 C 124.526 156.817 122.865 161.187 121.787 165.732 L 69.7507 145.485 C 62.9621 142.834 55.2703 146.213 52.6481 153.001 C 49.9968 159.789 53.3765 167.451 60.1651 170.102 L 86.3872 180.298 L 60.1651 190.494 C 53.3765 193.145 49.9968 200.807 52.6481 207.594 C 55.2995 214.382 62.9621 217.762 69.7507 215.11 L 121.787 194.864 C 122.894 199.408 124.526 203.778 126.653 207.915 L 73.247 230.55 C 69.8381 231.978 67.2159 234.775 65.9631 238.241 L 44.1405 298.952 C 42.4215 303.759 43.6161 309.149 47.2289 312.761 C 50.8417 316.373 56.2318 317.597 61.0392 315.849 L 121.758 294.029 C 123.623 293.359 125.283 292.31 126.624 290.941 C 127.818 289.747 128.78 288.348 129.45 286.746 L 152.03 233.464 C 156.196 235.649 160.625 237.338 165.228 238.474 L 145.766 290.242 C 143.202 297.059 146.64 304.691 153.487 307.255 C 160.304 309.819 167.938 306.381 170.502 299.535 L 180.029 274.219 L 189.557 299.535 C 192.12 306.381 199.754 309.819 206.572 307.255 C 208.407 306.585 209.981 305.536 211.263 304.225 C 214.817 300.671 216.186 295.223 214.293 290.213 L 194.83 238.445 C 199.434 237.309 203.862 235.649 208.029 233.435 L 230.609 286.717 C 232.036 290.125 234.833 292.747 238.3 294 L 299.019 315.82 C 303.827 317.539 309.217 316.344 312.829 312.732 C 316.442 309.119 317.666 303.73 315.918 298.923 L 315.889 298.952 Z M 252.635 89.4352 L 281.538 79.0642 L 271.165 107.963 L 239.058 121.568 L 252.664 89.4643 L 252.635 89.4352 Z M 78.4623 79.0642 L 107.365 89.4352 L 120.971 121.539 L 88.8637 107.934 L 78.4914 79.035 L 78.4623 79.0642 Z M 107.365 271.131 L 78.4623 281.502 L 88.8346 252.603 L 120.942 238.999 L 107.336 271.102 L 107.365 271.131 Z M 179.883 213.77 C 170.939 213.858 162.519 210.42 156.196 204.099 C 149.874 197.777 146.436 189.358 146.523 180.414 L 146.523 180.152 C 146.436 171.209 149.874 162.789 156.196 156.468 C 162.519 150.146 170.939 146.709 179.883 146.796 C 179.971 146.796 180.058 146.796 180.146 146.796 C 189.09 146.709 197.511 150.146 203.833 156.468 C 210.155 162.789 213.593 171.209 213.506 180.152 C 213.506 180.24 213.506 180.327 213.506 180.414 C 213.593 189.358 210.155 197.777 203.833 204.099 C 197.511 210.42 189.09 213.858 180.146 213.77 L 179.883 213.77 Z M 252.664 271.131 L 239.058 239.028 L 271.165 252.632 L 281.538 281.531 L 252.635 271.16 L 252.664 271.131 Z" stroke-linecap="round" />
</g>
		<g transform="matrix(1 0 0 1 0 -74.217)" id="Y5-bKY_amIhN9TlldXjri"  >
<path style="stroke: none; stroke-width: 1; stroke-dasharray: none; stroke-linecap: butt; stroke-dashoffset: 0; stroke-linejoin: miter; stroke-miterlimit: 4; fill: rgb(0,0,0); fill-rule: nonzero; opacity: 1;"  transform=" translate(-180, -180.283)" d="M 346.772 360.537 C 350.269 360.537 353.648 359.139 356.125 356.663 C 358.601 354.187 360 350.836 360 347.311 L 360 13.2259 C 359.971 5.91379 354.056 0 346.772 0 L 13.2276 0 C 9.73131 0 6.35156 1.39833 3.87503 3.87455 C 1.3985 6.35077 0 9.70095 0 13.2259 L 0 347.341 C 0 354.653 5.91454 360.566 13.2276 360.566 L 346.772 360.566 L 346.772 360.537 Z M 26.426 26.4227 L 333.545 26.4227 L 333.545 334.115 L 26.426 334.115 L 26.426 26.4227 Z" stroke-linecap="round" />
</g>
		<g transform="matrix(1 0 0 1 -113.49505 213.675)" id="Wh19BvZ4vEpTshgVlYfAE"  >
<path style="stroke: none; stroke-width: 1; stroke-dasharray: none; stroke-linecap: butt; stroke-dashoffset: 0; stroke-linejoin: miter; stroke-miterlimit: 4; fill: rgb(0,0,0); fill-rule: nonzero; opacity: 1;"  transform=" translate(-66.50495, -468.175)" d="M 53.2844 428.58 L 79.7255 428.58 L 79.7255 507.77 L 53.2844 507.77 L 53.2844 428.58 Z" stroke-linecap="round" />
</g>
		<g transform="matrix(1 0 0 1 -57.7235 213.6755)" id="8gDQeXi5on58bIuCMOGCM"  >
<path style="stroke: none; stroke-width: 1; stroke-dasharray: none; stroke-linecap: butt; stroke-dashoffset: 0; stroke-linejoin: miter; stroke-miterlimit: 4; fill: rgb(0,0,0); fill-rule: nonzero; opacity: 1;"  transform=" translate(-122.2765, -468.1755)" d="M 132.853 509 C 117.931 509 106.576 505.557 98.7872 498.671 C 90.9984 491.703 87.104 481.62 87.104 468.421 C 87.104 454.977 90.9164 444.771 98.5413 437.803 C 106.248 430.835 117.603 427.351 132.607 427.351 C 137.444 427.351 141.79 427.719 145.643 428.457 C 149.497 429.113 153.35 430.179 157.203 431.654 L 157.203 454.649 C 149.825 451.37 142.241 449.73 134.452 449.73 C 127.647 449.73 122.523 451.206 119.079 454.157 C 115.718 457.108 114.037 461.863 114.037 468.421 C 114.037 474.815 115.759 479.447 119.202 482.316 C 122.728 485.186 127.893 486.62 134.698 486.62 C 142.651 486.62 150.235 485.022 157.449 481.825 L 157.449 504.942 C 153.678 506.336 149.825 507.36 145.889 508.016 C 141.954 508.672 137.608 509 132.853 509 Z" stroke-linecap="round" />
</g>
		<g transform="matrix(1 0 0 1 15.635 213.675)" id="gbeR1pTyqabEp8GuXFy1y"  >
<path style="stroke: none; stroke-width: 1; stroke-dasharray: none; stroke-linecap: butt; stroke-dashoffset: 0; stroke-linejoin: miter; stroke-miterlimit: 4; fill: rgb(0,0,0); fill-rule: nonzero; opacity: 1;"  transform=" translate(-195.635, -468.175)" d="M 164.828 428.58 L 226.442 428.58 L 226.442 448.132 L 191.269 448.132 L 191.269 458.215 L 221.892 458.215 L 221.892 478.258 L 191.269 478.258 L 191.269 488.219 L 226.442 488.219 L 226.442 507.77 L 164.828 507.77 L 164.828 428.58 Z" stroke-linecap="round" />
</g>
		<g transform="matrix(1 0 0 1 89.178 213.675)" id="86bW4OF-HvJFdVswqHF13"  >
<path style="stroke: none; stroke-width: 1; stroke-dasharray: none; stroke-linecap: butt; stroke-dashoffset: 0; stroke-linejoin: miter; stroke-miterlimit: 4; fill: rgb(0,0,0); fill-rule: nonzero; opacity: 1;"  transform=" translate(-269.178, -468.175)" d="M 233.206 428.58 L 276.004 428.58 C 285.596 428.58 292.852 431.244 297.771 436.573 C 302.691 441.82 305.15 448.788 305.15 457.477 C 305.15 462.642 303.838 467.274 301.215 471.372 C 298.673 475.389 295.23 478.668 290.884 481.21 C 292.442 482.439 293.754 484.243 294.82 486.62 L 304.043 507.77 L 276.496 507.77 L 268.379 489.448 C 267.805 488.219 267.149 487.358 266.411 486.866 C 265.755 486.374 264.771 486.128 263.46 486.128 L 259.647 486.128 L 259.647 507.77 L 233.206 507.77 L 233.206 428.58 Z M 269.363 465.716 C 272.232 465.716 274.405 465.019 275.881 463.626 C 277.438 462.232 278.217 460.182 278.217 457.477 C 278.217 451.903 275.471 449.116 269.978 449.116 L 259.647 449.116 L 259.647 465.716 L 269.363 465.716 Z" stroke-linecap="round" />
</g>
</g>
</g>
</svg>