<?xml version="1.0" standalone="no"?>
<!DOCTYPE svg PUBLIC "-//W3C//DTD SVG 20010904//EN"
 "http://www.w3.org/TR/2001/REC-SVG-20010904/DTD/svg10.dtd">
<svg version="1.0" xmlns="http://www.w3.org/2000/svg"
 width="1024.000000pt" height="1024.000000pt" viewBox="0 0 1024.000000 1024.000000"
 preserveAspectRatio="xMidYMid meet">

<g transform="translate(0.000000,1024.000000) scale(0.100000,-0.100000)"
fill="#000000" stroke="none">
<path d="M4920 7705 c-303 -42 -551 -132 -777 -282 -105 -70 -274 -229 -355
-335 -259 -341 -309 -772 -133 -1155 l33 -72 -62 -45 c-124 -89 -216 -195
-257 -297 l-21 -54 1 -1055 c2 -949 0 -1061 -14 -1119 -21 -80 -14 -135 26
-219 81 -166 320 -342 621 -458 118 -45 364 -107 549 -139 423 -71 931 -58
1359 36 408 89 690 219 876 404 130 129 174 230 151 343 -9 42 -12 337 -12
1137 l0 1080 -32 65 c-41 83 -107 161 -208 245 -46 38 -79 74 -79 83 1 9 18
55 37 102 68 163 82 234 82 425 0 187 -12 261 -66 400 -164 427 -624 781
-1147 884 -206 41 -400 50 -572 26z m411 -220 c148 -19 260 -47 381 -95 205
-82 336 -167 489 -319 115 -115 191 -223 239 -337 55 -133 65 -186 64 -344 -1
-130 -4 -154 -28 -230 -97 -300 -351 -573 -645 -695 -56 -24 -112 -57 -161
-96 -72 -59 -204 -149 -216 -149 -4 0 14 23 40 50 69 74 100 146 104 248 4 73
1 89 -22 136 -32 66 -89 119 -165 155 -55 26 -59 26 -276 26 l-220 0 -60 -28
c-69 -32 -127 -85 -158 -142 -18 -32 -22 -57 -22 -130 0 -105 22 -166 92 -252
l42 -51 -55 31 c-31 18 -90 60 -133 94 -53 42 -103 71 -158 92 -257 100 -505
332 -624 586 -62 132 -82 235 -76 390 3 112 8 143 36 225 72 215 212 397 430
561 130 97 243 156 402 207 106 34 169 48 349 75 61 10 254 5 351 -8z m-1504
-1820 l23 -35 -53 -26 c-63 -32 -126 -74 -190 -127 -26 -22 -49 -38 -51 -36
-11 11 54 117 100 162 43 42 125 97 144 97 3 0 15 -16 27 -35z m2717 -21 c63
-53 93 -90 88 -107 -1 -5 7 -21 18 -37 30 -43 24 -46 -18 -9 -31 29 -105 79
-200 136 l-22 14 22 29 c12 17 27 30 34 30 7 0 42 -25 78 -56z m-1214 2 c109
-57 128 -136 58 -241 -49 -74 -113 -100 -248 -100 -94 0 -111 3 -162 28 -131
64 -176 196 -94 276 55 53 92 61 261 58 123 -2 156 -6 185 -21z m-1325 -160
c36 -31 38 -35 20 -42 -153 -54 -271 -118 -355 -192 -107 -93 -81 20 27 118
45 41 236 150 261 150 4 0 25 -16 47 -34z m2409 -24 c80 -42 186 -136 210
-186 34 -72 17 -73 -66 -6 -62 50 -194 123 -295 165 l-53 21 42 31 c49 35 48
35 162 -25z m-2947 -34 c-3 -8 -6 -5 -6 6 -1 11 2 17 5 13 3 -3 4 -12 1 -19z
m-16 -27 c10 16 11 11 27 -74 35 -184 195 -319 536 -452 295 -115 654 -169
1126 -169 317 0 474 14 712 64 404 86 664 202 817 366 63 67 95 133 107 223 5
41 9 49 20 40 7 -6 18 -8 23 -5 5 4 12 2 16 -4 3 -5 1 -10 -5 -10 -6 0 -4 -8
5 -17 43 -42 -8 -205 -95 -305 -210 -242 -773 -436 -1359 -468 -88 -4 -165
-11 -171 -15 -21 -13 -31 -55 -19 -78 18 -34 28 -37 115 -37 290 0 724 74
1000 171 107 38 271 118 337 165 l47 34 0 -38 c0 -33 -5 -42 -47 -73 -217
-161 -623 -302 -1023 -354 -167 -22 -167 -22 -186 -50 -21 -32 -12 -69 22 -92
24 -15 34 -15 162 1 393 50 789 172 1002 310 l70 46 0 -55 0 -54 -67 -52
c-141 -107 -453 -233 -706 -285 -96 -20 -127 -40 -127 -81 0 -40 27 -63 72
-63 56 0 305 62 433 108 118 42 274 116 342 163 23 16 44 29 47 29 3 0 6 -25
6 -55 0 -55 0 -55 -57 -100 -168 -133 -542 -266 -923 -329 -720 -120 -1580 1
-2020 284 -107 69 -130 96 -130 152 l0 48 68 -42 c165 -102 349 -173 601 -234
113 -28 150 -33 168 -25 25 12 38 49 29 85 -7 29 -38 41 -211 86 -229 60 -450
158 -587 261 -68 50 -68 51 -68 100 0 27 3 49 6 49 3 0 20 -12 37 -26 83 -70
352 -178 594 -239 223 -56 283 -64 318 -41 19 12 25 25 25 51 0 48 -32 69
-136 89 -121 24 -348 90 -457 132 -130 50 -276 129 -336 181 -42 37 -51 50
-51 78 l0 33 68 -45 c219 -149 602 -262 1041 -308 204 -21 246 -20 265 7 22
31 20 55 -7 82 -19 19 -38 24 -117 30 -763 57 -1346 339 -1409 680 -9 49 1 96
21 96 4 0 8 10 9 23 0 12 3 16 6 8 5 -11 7 -11 14 0z m3212 -1513 c-68 -72
-221 -155 -422 -229 -114 -43 -383 -113 -474 -124 -73 -9 -100 -30 -99 -76 1
-50 33 -73 92 -64 75 11 238 44 320 65 182 46 449 157 553 229 25 17 48 31 51
31 3 0 6 -24 6 -54 0 -51 -2 -56 -37 -83 -213 -163 -565 -284 -1028 -354 -131
-20 -189 -23 -465 -24 -387 0 -598 22 -905 95 -277 66 -548 186 -662 293 -29
27 -33 37 -33 83 l0 52 67 -44 c88 -59 223 -124 353 -169 119 -41 409 -115
452 -115 35 0 68 32 68 65 0 43 -38 70 -126 89 -329 71 -611 188 -764 317 -46
39 -50 46 -50 86 0 23 3 43 6 43 3 0 20 -11 37 -24 63 -47 258 -137 409 -187
160 -53 396 -106 608 -136 161 -22 785 -26 950 -5 279 36 508 86 710 157 131
46 358 155 385 185 l20 22 3 -47 c3 -41 -1 -52 -25 -77z m29 -573 c-37 -81
-304 -232 -537 -304 -396 -122 -662 -158 -1118 -148 -280 6 -398 18 -637 67
-354 73 -699 220 -810 346 -27 31 -30 41 -30 101 l0 65 23 -15 c240 -170 636
-290 1131 -342 169 -18 601 -20 776 -5 267 24 623 100 826 175 116 44 272 121
329 162 l40 30 9 -54 c6 -36 5 -63 -2 -78z m56 -223 c15 11 15 11 5 -3 -7 -9
-10 -19 -6 -23 4 -4 0 -4 -9 -1 -9 4 -19 1 -23 -4 -3 -6 -11 -8 -17 -5 -6 4
-8 2 -4 -4 3 -5 -6 -20 -21 -31 -20 -15 -22 -19 -8 -14 17 6 18 4 8 -9 -7 -8
-10 -17 -7 -21 11 -11 -122 -99 -238 -157 -188 -94 -504 -188 -779 -232 -131
-20 -179 -22 -514 -22 -329 0 -385 2 -505 21 -291 46 -568 122 -748 204 -76
35 -242 135 -242 145 0 3 19 -5 43 -16 41 -21 42 -21 17 -1 -14 11 -21 21 -16
21 5 0 3 7 -4 15 -7 8 -18 15 -24 15 -6 0 -2 -7 8 -15 11 -8 15 -15 9 -15 -6
0 -21 9 -34 20 -21 18 -22 19 -4 14 15 -4 13 1 -10 21 -30 27 -22 26 24 -4 14
-9 29 -16 35 -16 6 0 49 -19 96 -41 241 -117 628 -214 989 -249 181 -18 497
-19 678 -4 322 27 689 115 943 227 105 46 314 164 327 185 5 8 8 7 11 -1 3
-10 7 -10 20 0z m-33 -62 c-10 -11 -15 -20 -10 -20 4 0 2 -7 -5 -15 -7 -8 -18
-15 -24 -15 -6 0 -2 7 8 15 14 11 16 15 5 15 -9 0 -5 8 11 20 32 25 38 25 15
0z"/>
<path d="M5422 7295 c-48 -61 -18 -101 109 -146 182 -64 302 -135 419 -245
153 -145 243 -319 265 -514 7 -67 34 -100 82 -100 23 0 42 8 60 26 24 24 25
29 19 95 -39 391 -326 722 -761 876 -38 14 -93 27 -121 30 -46 5 -52 3 -72
-22z"/>
<path d="M4477 7201 c-269 -142 -489 -414 -548 -681 -17 -77 -20 -116 -16
-205 6 -125 18 -170 54 -202 30 -29 63 -29 98 -1 27 21 27 22 20 102 -12 133
-6 240 17 314 70 229 232 417 474 552 64 34 79 79 43 124 -27 35 -71 34 -142
-3z"/>
<path d="M4950 7044 c-216 -40 -365 -117 -515 -268 -80 -81 -108 -116 -138
-179 -95 -195 -102 -388 -20 -556 39 -81 88 -131 128 -131 75 0 98 63 51 142
-80 137 -84 310 -9 466 35 74 193 233 283 285 141 82 345 121 518 99 111 -14
237 -55 319 -103 32 -19 96 -72 144 -119 103 -101 152 -190 170 -312 23 -146
-30 -316 -125 -406 -52 -49 -59 -84 -26 -120 33 -35 64 -37 114 -8 82 48 176
197 207 326 16 70 16 209 -1 280 -64 275 -286 490 -605 586 -78 23 -111 27
-250 30 -114 2 -184 -1 -245 -12z"/>
<path d="M4720 4330 c-41 -41 -12 -120 44 -120 36 0 76 37 76 70 0 33 -40 70
-76 70 -13 0 -33 -9 -44 -20z"/>
<path d="M5163 4325 c-57 -24 -68 -72 -27 -110 53 -49 144 -23 144 40 0 62
-56 96 -117 70z"/>
<path d="M4615 4069 c-28 -17 -35 -29 -35 -65 0 -48 25 -62 130 -75 133 -15
731 -15 769 1 55 22 62 93 12 119 -11 6 -104 8 -242 4 -197 -5 -469 6 -579 22
-19 3 -44 0 -55 -6z"/>
<path d="M4732 3474 c-28 -19 -29 -63 -3 -95 l19 -24 338 -3 c239 -2 345 0
365 8 50 21 56 95 10 119 -13 7 -139 11 -363 11 -295 0 -347 -2 -366 -16z"/>
</g>
</svg>
