<?xml version="1.0" standalone="no"?>
<!DOCTYPE svg PUBLIC "-//W3C//DTD SVG 20010904//EN"
 "http://www.w3.org/TR/2001/REC-SVG-20010904/DTD/svg10.dtd">
<svg version="1.0" xmlns="http://www.w3.org/2000/svg"
 width="1024.000000pt" height="1024.000000pt" viewBox="0 0 1024.000000 1024.000000"
 preserveAspectRatio="xMidYMid meet">

<g transform="translate(0.000000,1024.000000) scale(0.100000,-0.100000)"
fill="#000000" stroke="none">
<path d="M4205 8605 c-24 -23 -25 -29 -25 -162 0 -114 3 -143 18 -164 15 -24
17 -54 14 -296 l-3 -269 -44 -22 c-137 -67 -223 -212 -234 -397 l-6 -99 -60
-12 c-33 -7 -62 -10 -64 -8 -2 2 -6 186 -9 409 -5 391 -5 404 -23 394 -11 -5
-75 -54 -144 -109 -68 -55 -127 -96 -129 -91 -10 15 -75 169 -177 416 -55 132
-104 251 -110 265 l-11 25 -13 -25 c-7 -14 -25 -61 -40 -105 -33 -97 -197
-551 -224 -620 -11 -27 -25 -49 -32 -47 -14 3 -243 119 -306 153 -23 13 -44
21 -48 18 -3 -4 11 -42 30 -85 20 -44 76 -180 125 -304 49 -124 103 -258 119
-299 17 -41 31 -79 31 -86 0 -14 -43 -25 -195 -51 -55 -9 -103 -19 -107 -23
-4 -3 72 -132 169 -286 227 -362 423 -681 423 -690 0 -3 -56 -5 -124 -5 l-123
0 -7 -227 c-4 -126 -12 -302 -16 -393 -5 -91 -16 -367 -24 -615 -21 -618 -35
-987 -51 -1340 -39 -820 -65 -1476 -65 -1629 0 -133 18 -180 88 -233 l44 -33
2187 0 2188 0 34 23 c41 28 76 77 90 130 7 28 7 120 0 321 -6 155 -16 400 -21
546 -6 146 -15 366 -20 490 -17 365 -49 1173 -65 1625 -15 413 -39 1002 -51
1222 l-6 112 -103 3 -104 3 95 220 c146 340 191 443 360 825 86 195 168 387
182 425 33 95 38 166 18 256 -78 350 -495 472 -757 222 -34 -32 -81 -86 -106
-120 -25 -35 -46 -63 -48 -63 -1 0 -16 29 -34 64 -139 283 -491 355 -714 148
-64 -61 -101 -115 -135 -199 l-27 -68 -3 -592 c-2 -326 -6 -593 -10 -593 -25
0 -30 52 -33 329 -3 193 -8 308 -16 335 -15 52 -82 130 -133 156 -40 21 -50
41 -50 108 l0 42 -210 0 -210 0 0 -60 c0 -50 -3 -61 -21 -71 -75 -40 -159
-157 -159 -221 0 -23 -4 -28 -25 -28 -24 0 -25 2 -25 64 0 208 -76 361 -232
468 l-58 39 0 267 c0 220 3 272 15 288 11 15 14 53 15 167 0 200 17 187 -235
187 -195 0 -196 0 -220 -25z m295 -120 c0 -24 -3 -25 -59 -25 -43 0 -60 -4
-65 -15 -3 -9 -18 -15 -36 -15 -28 0 -30 2 -30 40 l0 40 95 0 c95 0 95 0 95
-25z m-128 -422 l3 -208 68 -3 67 -3 0 -108 0 -108 45 -18 c69 -26 149 -105
187 -183 29 -62 32 -77 36 -189 l4 -122 -28 -6 c-16 -4 -52 -15 -79 -26 -46
-18 -73 -19 -330 -17 l-280 3 -3 134 c-3 152 11 213 67 295 33 47 100 100 151
118 l30 10 0 319 0 319 30 0 30 0 2 -207z m-1116 -83 c94 -154 81 -393 -30
-535 -16 -20 -16 -20 -37 5 -36 44 -77 140 -89 210 -13 76 -1 195 27 260 27
67 64 121 80 118 8 -2 30 -28 49 -58z m3103 -70 c8 0 11 -6 7 -16 -5 -14 -4
-15 7 -5 11 9 17 8 26 -2 6 -8 8 -17 4 -21 -4 -4 0 -4 10 0 9 3 25 0 34 -7 23
-20 73 -100 73 -118 0 -14 -1 -14 -10 -1 -7 12 -9 10 -8 -7 2 -14 7 -19 18
-15 8 3 12 2 8 -3 -4 -4 -3 -16 3 -26 7 -14 6 -19 -3 -19 -6 0 -3 -6 7 -14 18
-13 16 -17 -41 -87 -164 -201 -363 -483 -350 -497 7 -7 150 72 243 134 46 30
103 80 130 112 217 259 479 530 540 561 62 31 150 38 215 16 60 -19 111 -52
103 -66 -4 -5 -1 -9 5 -9 7 0 10 -7 7 -14 -4 -11 -1 -13 11 -9 14 6 15 4 4 -9
-10 -13 -10 -18 -1 -24 8 -4 9 -3 5 4 -4 7 -3 12 3 12 12 0 34 -65 37 -113 2
-26 -1 -35 -9 -31 -9 5 -9 4 0 -6 18 -19 -20 -135 -41 -123 -6 4 -4 -2 4 -12
14 -17 13 -18 -4 -12 -16 6 -17 5 -7 -7 7 -9 8 -17 2 -20 -5 -3 -12 0 -15 6
-3 7 -4 4 -1 -8 3 -11 -4 -41 -15 -67 -17 -39 -27 -48 -68 -63 -309 -112 -620
-259 -761 -361 -94 -68 -329 -290 -370 -350 -19 -29 -4 -22 202 82 274 140
435 215 648 299 90 36 172 70 182 76 25 15 22 -2 -10 -59 -19 -32 -33 -46 -43
-43 -12 4 -13 3 -2 -10 10 -12 8 -25 -9 -66 -12 -29 -25 -49 -29 -47 -4 3 -10
-2 -14 -10 -3 -8 -1 -17 5 -20 5 -4 3 -18 -8 -35 -9 -16 -20 -27 -25 -24 -4 3
-8 0 -8 -5 0 -6 5 -11 10 -11 6 0 10 -5 10 -11 0 -6 -9 -8 -22 -4 -18 5 -20 4
-8 -4 21 -15 8 -24 -100 -69 -163 -68 -317 -140 -413 -193 -82 -46 -264 -163
-277 -178 -3 -3 -27 -24 -55 -46 -27 -22 -88 -77 -135 -122 l-85 -82 -92 -1
c-51 0 -93 2 -93 5 0 14 141 298 173 348 l37 57 0 634 0 633 30 60 c53 106
146 157 265 148 28 -3 56 -5 64 -5z m-2722 -266 c10 -28 -17 -144 -48 -206
-41 -82 -94 -130 -194 -178 -46 -22 -88 -40 -94 -40 -20 0 -20 -20 -2 -106 34
-159 53 -225 64 -221 6 2 17 29 24 61 28 122 131 269 222 315 72 37 74 34 69
-74 -4 -80 -10 -105 -36 -158 -37 -74 -112 -150 -195 -197 -31 -18 -57 -37
-57 -43 0 -6 28 -68 62 -139 l61 -128 22 20 c12 12 27 45 34 75 29 127 121
255 223 306 32 16 63 27 68 24 15 -10 12 -106 -6 -166 -38 -126 -78 -178 -212
-272 -44 -31 -83 -60 -85 -64 -3 -4 22 -52 55 -105 47 -76 65 -98 82 -98 18 0
26 10 40 58 34 107 144 312 168 312 4 0 8 -51 8 -113 l0 -113 -57 -63 c-85
-92 -308 -281 -346 -292 -17 -5 -60 -9 -93 -9 -61 0 -63 1 -111 50 -26 28 -49
55 -51 60 -11 30 135 40 228 16 102 -25 120 -27 120 -11 0 13 -33 73 -118 214
-7 13 -17 11 -63 -9 -43 -19 -71 -24 -144 -25 -82 0 -95 3 -144 30 -58 32
-123 100 -119 125 9 47 196 51 328 7 41 -13 76 -21 78 -17 2 5 -17 48 -41 97
-25 48 -50 107 -57 131 -7 23 -17 42 -21 42 -4 0 -29 -9 -56 -21 -158 -68
-317 -33 -410 89 -18 24 -33 47 -33 51 0 31 182 52 271 31 30 -7 83 -26 118
-42 36 -15 68 -25 73 -20 4 4 0 33 -10 63 -10 30 -31 104 -46 165 l-28 112
-72 11 c-123 20 -209 85 -269 206 -27 54 -42 116 -34 139 4 10 17 11 57 5 105
-17 200 -84 270 -193 l41 -63 69 20 c60 18 69 24 74 49 23 114 151 267 255
304 48 17 60 17 68 -2z m823 -709 c0 -3 -28 -38 -63 -78 -114 -131 -149 -203
-183 -367 -12 -61 -15 -109 -11 -175 5 -78 32 -215 52 -267 7 -16 -2 -18 -94
-18 l-101 0 0 455 0 455 200 0 c110 0 200 -2 200 -5z m671 -121 c141 -42 251
-130 307 -244 18 -36 35 -80 38 -97 l7 -33 -247 0 -246 0 0 -105 0 -105 240 0
c231 0 240 -1 240 -19 0 -30 -17 -68 -56 -127 l-36 -54 -368 0 -369 0 -31 45
c-124 180 -111 415 31 586 115 138 322 203 490 153z m1789 -418 c0 -20 -27
-40 -35 -26 -3 5 -11 10 -16 10 -6 0 -3 -7 5 -16 9 -8 16 -21 16 -27 -1 -20
-39 -93 -40 -75 0 9 -5 20 -11 24 -10 6 -8 -10 8 -54 4 -8 0 -10 -11 -6 -10 4
-15 13 -12 20 3 8 0 14 -5 14 -11 0 -9 -16 7 -54 5 -14 4 -17 -5 -11 -10 5
-11 2 -6 -14 5 -17 3 -20 -12 -14 -16 6 -16 5 -5 -9 11 -14 11 -22 -3 -47 -8
-17 -14 -32 -13 -34 2 -2 -4 -10 -12 -18 -16 -16 -120 -22 -120 -7 0 4 5 8 12
8 6 0 8 3 4 7 -4 4 -16 -3 -28 -17 -18 -22 -19 -23 -15 -5 3 16 -1 21 -17 22
-12 1 -15 -1 -8 -4 6 -3 12 -9 12 -15 0 -6 -6 -8 -14 -5 -8 3 -17 1 -19 -6 -2
-7 -8 -8 -13 -4 -5 4 -2 13 6 18 11 8 12 12 3 16 -7 2 -13 11 -13 19 0 8 -5
14 -10 14 -7 0 -7 -7 1 -21 21 -40 2 -44 -234 -47 -261 -2 -259 -6 -47 95 292
140 460 213 494 213 7 0 16 7 20 15 3 8 11 15 18 14 10 0 10 -2 1 -6 -7 -2
-13 -9 -13 -14 0 -4 7 -6 15 -3 8 4 15 12 15 19 0 12 34 29 53 26 4 -1 7 3 7
7 0 4 9 8 20 9 11 1 20 -4 20 -11z m102 -576 l-4 -60 -1913 0 -1914 0 -5 -32
c-3 -18 -8 -98 -11 -178 -32 -838 -54 -1336 -60 -1425 -5 -67 -13 -188 -35
-555 -5 -91 -12 -190 -15 -220 -6 -65 -35 -505 -35 -537 0 -13 -4 -23 -10 -23
-7 0 -10 232 -10 678 0 631 4 839 30 1597 5 160 12 408 16 553 l7 262 1981 0
1981 0 -3 -60z m-3129 -334 c41 -17 83 -66 92 -106 5 -23 0 -45 -19 -84 l-26
-53 0 -751 0 -752 25 -128 c57 -292 151 -484 322 -658 151 -154 310 -238 532
-279 95 -17 266 -20 361 -5 294 47 555 243 705 531 52 101 104 251 136 394 23
98 23 113 26 879 3 697 2 780 -12 796 -46 51 -37 139 19 188 62 54 132 54 190
-2 41 -38 57 -110 35 -154 -11 -22 -15 -176 -19 -827 -6 -896 -4 -862 -85
-1130 -130 -425 -454 -753 -846 -859 -514 -138 -994 33 -1326 473 -115 152
-211 397 -253 651 -19 107 -20 168 -20 874 0 756 0 759 -21 793 -17 27 -20 45
-16 80 6 57 31 92 87 121 51 26 69 27 113 8z m2653 -1606 c7 -1217 11 -1137
-67 -1295 -100 -205 -284 -354 -499 -404 -82 -20 -115 -20 -975 -17 -990 3
-918 -2 -1068 72 -240 118 -391 323 -426 576 -7 53 -9 271 -4 680 l7 603 27
-130 c15 -71 42 -188 59 -260 l30 -130 3 -390 2 -390 29 -70 c70 -168 173
-290 301 -356 140 -74 86 -70 1090 -67 l900 3 69 28 c191 76 335 241 386 443
19 74 20 114 20 892 l0 815 40 276 c56 387 53 372 62 281 4 -41 10 -563 14
-1160z m-1316 1140 l0 -70 -225 0 -225 0 0 70 0 70 225 0 225 0 0 -70z m-70
-270 l0 -70 -155 0 -155 0 0 70 0 70 155 0 155 0 0 -70z m-70 -229 l76 -1 12
-70 c18 -107 45 -178 143 -375 49 -99 101 -220 115 -270 26 -86 28 -103 32
-355 5 -297 -1 -345 -49 -403 -62 -76 -70 -77 -411 -77 -274 0 -307 2 -344 19
-96 44 -114 111 -114 427 0 338 14 401 146 665 78 156 117 265 133 367 5 34
13 67 16 72 4 7 38 9 88 6 45 -2 116 -5 157 -5z"/>
<path d="M6386 7833 c-6 -14 -5 -15 5 -6 7 7 10 15 7 18 -3 3 -9 -2 -12 -12z"/>
<path d="M6440 7841 c0 -6 4 -13 10 -16 6 -3 7 1 4 9 -7 18 -14 21 -14 7z"/>
<path d="M6376 7798 c3 -5 10 -6 15 -3 13 9 11 12 -6 12 -8 0 -12 -4 -9 -9z"/>
<path d="M6476 7785 c-9 -26 -7 -32 5 -12 6 10 9 21 6 23 -2 3 -7 -2 -11 -11z"/>
<path d="M7350 7796 c0 -2 8 -10 18 -17 15 -13 16 -12 3 4 -13 16 -21 21 -21
13z"/>
<path d="M7324 7749 c-4 -7 -3 -9 4 -5 5 3 13 0 15 -6 4 -9 6 -10 6 -1 1 17
-16 25 -25 12z"/>
<path d="M6450 7743 c0 -5 -10 -15 -22 -21 -13 -6 -18 -11 -12 -11 16 -1 50
27 41 35 -4 4 -7 3 -7 -3z"/>
<path d="M7315 7702 c3 -3 -1 -12 -8 -21 -11 -14 -10 -14 6 -2 16 13 20 13 28
0 6 -10 9 -10 9 -1 0 21 -4 26 -22 27 -10 1 -16 -1 -13 -3z"/>
<path d="M7416 7694 c-3 -9 -2 -22 2 -31 6 -10 9 -5 9 16 0 35 -2 38 -11 15z"/>
<path d="M6466 7688 c3 -5 10 -6 15 -3 13 9 11 12 -6 12 -8 0 -12 -4 -9 -9z"/>
<path d="M6406 7675 c-11 -8 -15 -15 -9 -15 6 0 16 7 23 15 16 19 11 19 -14 0z"/>
<path d="M7364 7668 c-4 -6 -3 -8 4 -4 6 3 13 2 16 -3 4 -5 -3 -13 -15 -16
-11 -4 -18 -9 -16 -12 7 -6 47 16 47 26 0 14 -29 21 -36 9z"/>
<path d="M6466 7662 c-3 -4 4 -9 15 -9 23 -2 25 3 4 10 -8 4 -16 3 -19 -1z"/>
<path d="M7242 7634 c-7 -8 -8 -14 -3 -14 10 0 25 19 20 25 -2 1 -10 -3 -17
-11z"/>
<path d="M6485 7630 c3 -5 8 -10 11 -10 2 0 4 5 4 10 0 6 -5 10 -11 10 -5 0
-7 -4 -4 -10z"/>
<path d="M7375 7619 c-4 -6 -5 -12 -2 -15 2 -3 7 2 10 11 7 17 1 20 -8 4z"/>
<path d="M6418 7593 c-8 -10 -15 -29 -16 -42 l-1 -24 16 22 c8 13 21 20 30 17
8 -3 11 -1 8 5 -4 5 -16 7 -28 3 -22 -7 -22 -6 -3 15 11 11 17 21 14 21 -3 0
-12 -8 -20 -17z"/>
<path d="M7236 7602 c-3 -5 1 -9 9 -9 8 0 12 4 9 9 -3 4 -7 8 -9 8 -2 0 -6 -4
-9 -8z"/>
<path d="M7385 7590 c-4 -6 -11 -8 -16 -5 -5 3 -6 -1 -2 -10 4 -12 8 -13 13
-5 4 7 14 16 21 21 9 6 10 9 2 9 -6 0 -15 -5 -18 -10z"/>
<path d="M7325 7580 c-3 -6 1 -7 9 -4 18 7 21 14 7 14 -6 0 -13 -4 -16 -10z"/>
<path d="M7252 7566 c7 -8 15 -12 17 -11 5 6 -10 25 -20 25 -5 0 -4 -6 3 -14z"/>
<path d="M7220 7555 c0 -7 61 -37 66 -33 2 3 -12 12 -31 21 -19 9 -35 15 -35
12z"/>
<path d="M7290 7555 c0 -5 5 -17 10 -25 5 -8 10 -10 10 -5 0 6 -5 17 -10 25
-5 8 -10 11 -10 5z"/>
<path d="M7380 7541 c0 -10 19 -25 25 -20 1 2 -3 10 -11 17 -8 7 -14 8 -14 3z"/>
<path d="M7241 7516 c2 -2 15 -9 29 -15 24 -11 24 -11 6 3 -16 13 -49 24 -35
12z"/>
<path d="M7311 7506 c-8 -10 -8 -16 2 -24 16 -14 50 -9 53 7 2 7 0 7 -3 1 -3
-7 -12 -3 -23 10 -14 17 -19 18 -29 6z m24 -16 c3 -5 2 -10 -4 -10 -5 0 -13 5
-16 10 -3 6 -2 10 4 10 5 0 13 -4 16 -10z"/>
<path d="M7186 7502 c-3 -4 4 -9 15 -9 23 -2 25 3 4 10 -8 4 -16 3 -19 -1z"/>
<path d="M7190 7452 c0 -5 7 -15 15 -22 8 -7 15 -9 15 -6 0 4 -7 14 -15 22 -8
9 -15 11 -15 6z"/>
<path d="M7350 7441 c0 -6 4 -13 10 -16 6 -3 7 1 4 9 -7 18 -14 21 -14 7z"/>
<path d="M7327 7419 c7 -7 15 -10 18 -7 3 3 -2 9 -12 12 -14 6 -15 5 -6 -5z"/>
<path d="M7260 7411 c0 -10 19 -25 25 -20 1 2 -3 10 -11 17 -8 7 -14 8 -14 3z"/>
<path d="M7177 7399 c7 -7 15 -10 18 -7 3 3 -2 9 -12 12 -14 6 -15 5 -6 -5z"/>
<path d="M7310 7407 c0 -2 6 -10 14 -16 11 -9 16 -9 22 1 4 7 4 10 -1 6 -4 -4
-14 -3 -22 3 -7 6 -13 9 -13 6z"/>
<path d="M7268 7370 c42 -26 56 -26 17 0 -16 11 -34 20 -40 20 -5 0 5 -9 23
-20z"/>
<path d="M7205 7369 c-4 -6 -5 -12 -2 -15 2 -3 7 2 10 11 7 17 1 20 -8 4z"/>
<path d="M7140 7320 c0 -5 -8 -7 -17 -4 -11 4 -14 2 -8 -3 6 -4 12 -11 15 -15
3 -4 11 2 18 12 7 12 8 20 2 20 -5 0 -10 -4 -10 -10z"/>
<path d="M7076 7304 c-4 -9 -4 -19 -1 -22 3 -3 5 0 5 6 0 6 8 9 18 6 10 -4 13
-2 7 3 -5 4 -13 12 -16 16 -4 4 -9 0 -13 -9z"/>
<path d="M7135 7030 c-3 -5 -1 -10 4 -10 6 0 11 5 11 10 0 6 -2 10 -4 10 -3 0
-8 -4 -11 -10z"/>
<path d="M7041 6984 c0 -11 3 -14 6 -6 3 7 2 16 -1 19 -3 4 -6 -2 -5 -13z"/>
<path d="M7070 6985 c7 -8 17 -15 22 -15 5 0 3 7 -6 15 -8 8 -18 15 -22 15 -3
0 -1 -7 6 -15z"/>
<path d="M7100 6990 c8 -5 20 -10 25 -10 6 0 3 5 -5 10 -8 5 -19 10 -25 10 -5
0 -3 -5 5 -10z"/>
<path d="M6981 6953 c-1 -7 -9 -10 -18 -7 -16 5 -16 4 0 -6 21 -13 32 -8 24
12 -4 9 -6 9 -6 1z"/>
<path d="M7080 6951 c0 -10 19 -25 25 -20 1 2 -3 10 -11 17 -8 7 -14 8 -14 3z"/>
<path d="M6940 6919 c0 -5 -4 -7 -10 -4 -23 14 -8 -13 20 -35 17 -14 36 -30
43 -36 9 -8 16 -7 25 2 10 11 7 17 -19 33 -18 11 -37 17 -42 14 -6 -4 -8 3 -5
15 4 12 2 22 -3 22 -5 0 -9 -5 -9 -11z m50 -50 c0 -4 -7 -6 -15 -3 -8 4 -15
10 -15 15 0 4 7 6 15 3 8 -4 15 -10 15 -15z"/>
<path d="M6976 6908 c3 -5 10 -6 15 -3 13 9 11 12 -6 12 -8 0 -12 -4 -9 -9z"/>
<path d="M7040 6911 c0 -10 19 -25 25 -20 1 2 -3 10 -11 17 -8 7 -14 8 -14 3z"/>
<path d="M7110 6910 c0 -5 -8 -6 -17 -3 -17 6 -17 6 -1 -10 21 -22 23 -21 25
3 1 11 0 20 -3 20 -2 0 -4 -4 -4 -10z"/>
<path d="M7005 6900 c-3 -5 -2 -10 4 -10 5 0 17 -7 26 -16 9 -9 19 -13 23 -9
4 4 1 10 -6 12 -7 3 -19 11 -27 19 -8 9 -16 10 -20 4z"/>
<path d="M6903 6888 c4 -12 2 -18 -8 -18 -9 0 -12 -6 -9 -15 4 -8 1 -15 -6
-15 -6 0 -8 -5 -4 -11 4 -8 12 -2 21 15 8 15 18 24 23 21 16 -10 11 5 -7 23
-16 16 -16 16 -10 0z"/>
<path d="M6940 6845 c0 -8 -5 -15 -11 -15 -5 0 -7 5 -4 10 3 6 1 10 -4 10 -15
0 -14 -15 3 -29 11 -9 15 -8 20 4 5 13 9 13 26 3 24 -15 27 -33 3 -24 -9 4
-20 1 -24 -6 -6 -9 -13 -7 -31 7 -13 11 -20 16 -16 11 4 -5 4 -14 -1 -20 -11
-13 37 -15 57 -3 12 8 16 -2 13 -33 -1 -13 0 -13 8 0 23 39 21 56 -9 78 -24
18 -30 19 -30 7z"/>
<path d="M7016 6813 c-10 -25 -7 -28 10 -7 15 18 15 18 10 -11 -4 -21 -3 -25
3 -15 5 8 9 19 9 24 0 5 6 12 12 16 7 4 2 8 -13 8 -14 0 -28 -7 -31 -15z"/>
<path d="M6865 6800 c3 -5 8 -10 11 -10 2 0 4 5 4 10 0 6 -5 10 -11 10 -5 0
-7 -4 -4 -10z"/>
<path d="M6994 6754 c-4 -16 -12 -23 -20 -20 -8 3 -14 2 -14 -3 0 -5 -9 -11
-20 -14 -13 -3 -21 1 -26 15 -3 11 -8 17 -11 15 -2 -3 0 -14 6 -26 11 -19 51
-26 51 -8 0 5 7 7 15 3 8 -3 15 -2 15 3 0 5 9 11 20 14 11 3 20 11 19 19 0 10
-2 10 -6 1 -8 -21 -25 -14 -18 7 3 11 4 20 1 20 -3 0 -9 -12 -12 -26z"/>
<path d="M6850 6741 c0 -8 -7 -11 -15 -7 -8 3 -15 1 -15 -4 0 -6 6 -10 14 -10
17 0 31 18 22 27 -3 4 -6 1 -6 -6z"/>
<path d="M6866 6724 c-8 -22 -4 -25 11 -9 7 8 9 16 4 19 -5 3 -12 -1 -15 -10z"/>
<path d="M6887 6699 c7 -7 15 -10 18 -7 3 3 -2 9 -12 12 -14 6 -15 5 -6 -5z"/>
<path d="M6814 6666 c-1 -13 4 -23 11 -23 8 0 11 7 7 16 -5 14 -4 14 11 2 10
-8 19 -12 22 -9 2 2 -8 11 -23 20 -26 16 -27 15 -28 -6z"/>
<path d="M6870 6681 c0 -10 19 -25 25 -20 1 2 -3 10 -11 17 -8 7 -14 8 -14 3z"/>
<path d="M6782 6636 c7 -8 15 -12 17 -11 5 6 -10 25 -20 25 -5 0 -4 -6 3 -14z"/>
<path d="M6856 6351 c-4 -6 -2 -11 4 -11 6 0 8 -4 5 -10 -3 -5 -1 -10 4 -10
13 0 14 10 2 29 -6 9 -11 10 -15 2z"/>
<path d="M6832 6326 c7 -8 15 -12 17 -11 5 6 -10 25 -20 25 -5 0 -4 -6 3 -14z"/>
<path d="M6720 6312 c0 -5 7 -15 15 -22 8 -7 15 -9 15 -6 0 4 -7 14 -15 22 -8
9 -15 11 -15 6z"/>
<path d="M6686 6294 c-9 -23 -7 -31 3 -15 7 11 12 8 26 -12 9 -14 13 -32 9
-38 -4 -7 -3 -9 4 -5 17 10 10 39 -14 63 -19 18 -23 20 -28 7z"/>
<path d="M6760 6289 c0 -5 5 -7 10 -4 6 3 10 8 10 11 0 2 -4 4 -10 4 -5 0 -10
-5 -10 -11z"/>
<path d="M6757 6244 c-3 -5 1 -15 9 -22 16 -14 18 -5 5 17 -5 7 -11 9 -14 5z"/>
<path d="M6691 6231 c-8 -5 -9 -11 -3 -15 5 -3 12 1 16 9 6 17 6 18 -13 6z"/>
<path d="M6663 6206 c4 -11 3 -34 -4 -53 -9 -28 -13 -32 -25 -22 -11 9 -14 8
-14 -2 -1 -9 -8 -5 -20 10 -11 13 -20 19 -20 13 0 -6 7 -17 15 -26 9 -8 12
-22 8 -32 -4 -12 -3 -15 5 -10 7 4 12 14 12 22 0 8 5 14 11 14 6 0 9 -7 5 -15
-5 -14 5 -19 32 -16 6 1 12 -5 12 -14 0 -8 4 -15 9 -15 5 0 7 10 3 22 -4 16
-2 19 8 13 9 -5 11 -4 6 3 -4 8 -15 8 -31 2 -30 -11 -31 -5 -6 52 16 39 17 45
3 58 -14 13 -15 12 -9 -4z"/>
<path d="M6600 6203 c0 -15 19 -37 26 -31 3 4 -1 14 -10 23 -9 9 -16 13 -16 8z"/>
<path d="M6636 6174 c-9 -24 -2 -26 12 -4 7 11 8 20 3 20 -5 0 -12 -7 -15 -16z"/>
<path d="M6725 6180 c3 -5 8 -10 11 -10 2 0 4 5 4 10 0 6 -5 10 -11 10 -5 0
-7 -4 -4 -10z"/>
<path d="M6692 6168 c-13 -17 -27 -66 -15 -53 10 11 34 65 29 65 -2 0 -8 -6
-14 -12z"/>
<path d="M6560 6119 c0 -5 5 -7 10 -4 6 3 10 8 10 11 0 2 -4 4 -10 4 -5 0 -10
-5 -10 -11z"/>
<path d="M6765 6109 c-4 -6 -5 -12 -2 -15 2 -3 7 2 10 11 7 17 1 20 -8 4z"/>
<path d="M6575 6100 c-3 -5 -1 -10 4 -10 6 0 11 5 11 10 0 6 -2 10 -4 10 -3 0
-8 -4 -11 -10z"/>
<path d="M6726 6098 c3 -5 10 -6 15 -3 13 9 11 12 -6 12 -8 0 -12 -4 -9 -9z"/>
<path d="M6710 6069 c0 -5 5 -7 10 -4 6 3 10 8 10 11 0 2 -4 4 -10 4 -5 0 -10
-5 -10 -11z"/>
<path d="M6525 6060 c-3 -5 -1 -10 4 -10 6 0 11 5 11 10 0 6 -2 10 -4 10 -3 0
-8 -4 -11 -10z"/>
<path d="M5156 8605 c-23 -21 -26 -32 -26 -88 0 -50 -4 -66 -16 -71 -13 -5
-15 -24 -12 -122 3 -106 5 -117 26 -134 22 -18 22 -20 22 -304 l0 -286 50 0
50 0 0 269 c0 148 3 276 6 285 3 9 17 16 30 16 l24 0 0 -285 0 -285 130 0 130
0 0 281 0 281 25 30 c23 28 25 37 25 139 0 90 -3 109 -15 109 -20 0 -29 41
-21 95 6 39 4 48 -18 70 -25 25 -26 25 -204 25 -176 0 -180 0 -206 -25z m314
-135 l0 -30 -80 0 -80 0 0 -76 0 -75 -27 3 c-27 3 -28 5 -31 73 -2 48 -8 72
-18 78 -7 4 -14 19 -14 32 l0 25 125 0 125 0 0 -30z"/>
</g>
</svg>
