<svg width="360" height="509" viewBox="0 0 360 509" fill="none" xmlns="http://www.w3.org/2000/svg">
<g filter="url(#filter0_d_208_98)">
<mask id="mask0_208_98" style="mask-type:luminance" maskUnits="userSpaceOnUse" x="0" y="0" width="360" height="509">
<path d="M360 0H0V509H360V0Z" fill="white"/>
</mask>
<g mask="url(#mask0_208_98)">
<path d="M315.889 298.952L294.066 238.241C292.813 234.775 290.191 231.978 286.782 230.55L233.377 207.915C235.503 203.778 237.135 199.408 238.242 194.864L290.278 215.11C295.319 217.062 300.826 215.722 304.438 212.139C305.691 210.886 306.711 209.342 307.41 207.594C310.062 200.807 306.682 193.145 299.893 190.494L273.671 180.298L299.893 170.102C306.711 167.451 310.062 159.789 307.41 153.001C304.759 146.213 297.096 142.834 290.308 145.485L238.271 165.732C237.164 161.187 235.533 156.817 233.406 152.681L286.811 130.045C288.385 129.375 289.812 128.414 291.007 127.219C292.376 125.85 293.425 124.19 294.095 122.354L315.918 61.6433C317.637 56.8365 316.442 51.4471 312.829 47.8347C309.217 44.2223 303.827 42.9988 299.019 44.7467L238.3 66.5666C234.833 67.8192 232.036 70.4411 230.609 73.8496L208.029 127.132C203.833 124.947 199.434 123.257 194.83 122.121L214.293 70.3537C216.857 63.5368 213.419 55.9043 206.572 53.3406C199.754 50.777 192.12 54.2146 189.557 61.0606L180.029 86.3763L170.502 61.0606C167.938 54.2146 160.304 50.777 153.487 53.3406C146.64 55.9043 143.202 63.5368 145.766 70.3537L165.228 122.121C160.625 123.257 156.196 124.918 152.03 127.132L129.45 73.8496C128.022 70.4411 125.225 67.8192 121.758 66.5666L61.0392 44.7467C56.2318 43.0279 50.8417 44.2223 47.2289 47.8347C43.6161 51.4471 42.3924 56.8365 44.1405 61.6433L65.9631 122.354C67.2159 125.821 69.8381 128.618 73.247 130.045L126.653 152.681C124.526 156.817 122.865 161.187 121.787 165.732L69.7507 145.485C62.9621 142.834 55.2703 146.213 52.6481 153.001C49.9968 159.789 53.3765 167.451 60.1651 170.102L86.3872 180.298L60.1651 190.494C53.3765 193.145 49.9968 200.807 52.6481 207.594C55.2995 214.382 62.9621 217.762 69.7507 215.11L121.787 194.864C122.894 199.408 124.526 203.778 126.653 207.915L73.247 230.55C69.8381 231.978 67.2159 234.775 65.9631 238.241L44.1405 298.952C42.4215 303.759 43.6161 309.149 47.2289 312.761C50.8417 316.373 56.2318 317.597 61.0392 315.849L121.758 294.029C123.623 293.359 125.283 292.31 126.624 290.941C127.818 289.747 128.78 288.348 129.45 286.746L152.03 233.464C156.196 235.649 160.625 237.338 165.228 238.474L145.766 290.242C143.202 297.059 146.64 304.691 153.487 307.255C160.304 309.819 167.938 306.381 170.502 299.535L180.029 274.219L189.557 299.535C192.12 306.381 199.754 309.819 206.572 307.255C208.407 306.585 209.981 305.536 211.263 304.225C214.817 300.671 216.186 295.223 214.293 290.213L194.83 238.445C199.434 237.309 203.862 235.649 208.029 233.435L230.609 286.717C232.036 290.125 234.833 292.747 238.3 294L299.019 315.82C303.827 317.539 309.217 316.344 312.829 312.732C316.442 309.119 317.666 303.73 315.918 298.923L315.889 298.952ZM252.635 89.4352L281.538 79.0642L271.165 107.963L239.058 121.568L252.664 89.4643L252.635 89.4352ZM78.4623 79.0642L107.365 89.4352L120.971 121.539L88.8637 107.934L78.4914 79.035L78.4623 79.0642ZM107.365 271.131L78.4623 281.502L88.8346 252.603L120.942 238.999L107.336 271.102L107.365 271.131ZM179.883 213.77C170.939 213.858 162.519 210.42 156.196 204.099C149.874 197.777 146.436 189.358 146.523 180.414V180.152C146.436 171.209 149.874 162.789 156.196 156.468C162.519 150.146 170.939 146.709 179.883 146.796C179.971 146.796 180.058 146.796 180.146 146.796C189.09 146.709 197.511 150.146 203.833 156.468C210.155 162.789 213.593 171.209 213.506 180.152C213.506 180.24 213.506 180.327 213.506 180.414C213.593 189.358 210.155 197.777 203.833 204.099C197.511 210.42 189.09 213.858 180.146 213.77H179.883ZM252.664 271.131L239.058 239.028L271.165 252.632L281.538 281.531L252.635 271.16L252.664 271.131Z" fill="black"/>
<path d="M346.772 360.537C350.269 360.537 353.648 359.139 356.125 356.663C358.601 354.187 360 350.836 360 347.311V13.2259C359.971 5.91379 354.056 0 346.772 0H13.2276C9.73131 0 6.35156 1.39833 3.87503 3.87455C1.3985 6.35077 0 9.70095 0 13.2259V347.341C0 354.653 5.91454 360.566 13.2276 360.566H346.772V360.537ZM26.426 26.4227H333.545V334.115H26.426V26.4227Z" fill="black"/>
<path d="M53.2844 428.58H79.7255V507.77H53.2844V428.58Z" fill="black"/>
<path d="M132.853 509C117.931 509 106.576 505.557 98.7872 498.671C90.9984 491.703 87.104 481.62 87.104 468.421C87.104 454.977 90.9164 444.771 98.5413 437.803C106.248 430.835 117.603 427.351 132.607 427.351C137.444 427.351 141.79 427.719 145.643 428.457C149.497 429.113 153.35 430.179 157.203 431.654V454.649C149.825 451.37 142.241 449.73 134.452 449.73C127.647 449.73 122.523 451.206 119.079 454.157C115.718 457.108 114.037 461.863 114.037 468.421C114.037 474.815 115.759 479.447 119.202 482.316C122.728 485.186 127.893 486.62 134.698 486.62C142.651 486.62 150.235 485.022 157.449 481.825V504.942C153.678 506.336 149.825 507.36 145.889 508.016C141.954 508.672 137.608 509 132.853 509Z" fill="black"/>
<path d="M164.828 428.58H226.442V448.132H191.269V458.215H221.892V478.258H191.269V488.219H226.442V507.77H164.828V428.58Z" fill="black"/>
<path d="M233.206 428.58H276.004C285.596 428.58 292.852 431.244 297.771 436.573C302.691 441.82 305.15 448.788 305.15 457.477C305.15 462.642 303.838 467.274 301.215 471.372C298.673 475.389 295.23 478.668 290.884 481.21C292.442 482.439 293.754 484.243 294.82 486.62L304.043 507.77H276.496L268.379 489.448C267.805 488.219 267.149 487.358 266.411 486.866C265.755 486.374 264.771 486.128 263.46 486.128H259.647V507.77H233.206V428.58ZM269.363 465.716C272.232 465.716 274.405 465.019 275.881 463.626C277.438 462.232 278.217 460.182 278.217 457.477C278.217 451.903 275.471 449.116 269.978 449.116H259.647V465.716H269.363Z" fill="black"/>
</g>
</g>
<defs>
<filter id="filter0_d_208_98" x="-4" y="0" width="368" height="517" filterUnits="userSpaceOnUse" color-interpolation-filters="sRGB">
<feFlood flood-opacity="0" result="BackgroundImageFix"/>
<feColorMatrix in="SourceAlpha" type="matrix" values="0 0 0 0 0 0 0 0 0 0 0 0 0 0 0 0 0 0 127 0" result="hardAlpha"/>
<feOffset dy="4"/>
<feGaussianBlur stdDeviation="2"/>
<feComposite in2="hardAlpha" operator="out"/>
<feColorMatrix type="matrix" values="0 0 0 0 0 0 0 0 0 0 0 0 0 0 0 0 0 0 0.25 0"/>
<feBlend mode="normal" in2="BackgroundImageFix" result="effect1_dropShadow_208_98"/>
<feBlend mode="normal" in="SourceGraphic" in2="effect1_dropShadow_208_98" result="shape"/>
</filter>
</defs>
</svg>
